PathFileType	4	(X/Y/Z)	C:/Users/beibeiliu/ov580/test_trc/User2\sequence.29_training_dense_right.trc
DataRate	CameraRate	NumFrames	NumMarkers	Units	OrigDataRate	OrigDataStartFrame	OrigNumFrames
120	120	20	19	mm	120	229	365
Frame#	Time	ThumbCMC			ThumbMCP			ThumbIP			ThumbTip			IndexMCP			IndexPIP			IndexTip			MiddleMCP			MiddlePIP			MiddleTip			RingMCP			RingPIP			RingTip			PinkyMCP			PinkyPIP			PinkyTip			BackHand1			BackHand2			BackHand3	
		X0	Y0	Z0	X1	Y1	Z1	X2	Y2	Z2	X3	Y3	Z3	X4	Y4	Z4	X5	Y5	Z5	X6	Y6	Z6	X7	Y7	Z7	X8	Y8	Z8	X9	Y9	Z9	X10	Y10	Z10	X11	Y11	Z11	X12	Y12	Z12	X13	Y13	Z13	X14	Y14	Z14	X15	Y15	Z15	X16	Y16	Z16	X17	Y17	Z17	X18	Y18	Z18	
228	1.9	116.031	14.6757	74.3752	89.4237	35.5661	56.1619	55.0553	25.9537	42.47	35.5906	3.84415	45.8792	92.6529	-18.682	5.58202	77.393	-12.2364	-21.9017	48.5036	12.9122	-24.7623	75.2801	-41.9509	8.76659	55.6816	-37.9278	-22.1711	27.9547	-19.8029	-38.5131	59.9246	-51.1467	23.7275	36.6653	-54.5837	-1.27239	13.6751	-41.5696	-21.1351	38.8388	-56.7166	52.7927	18.1766	-58.6786	35.8984	-3.75796	-56.7282	16.6608	88.7869	-51.7592	69.8374	106.129	-53.4695	96.2449	120.577	-29.6836	66.3855	
229	1.90833	115.621	14.2081	77.7799	87.016	33.8831	60.0388	52.2768	27.7461	43.6365	31.5353	7.44546	45.5078	94.1109	-17.4318	4.28406	77.6382	-9.51133	-22.1706	45.864	12.0628	-25.6766	79.6637	-38.6589	7.46067	54.7126	-37.8923	-24.7707	28.1563	-19.5805	-38.5728	59.549	-53.3691	19.9761	38.311	-54.891	-1.80409	16.7858	-46.03	-17.5809	37.4405	-58.4793	49.4783	16.3222	-57.531	31.3408	-5.82202	-57.3555	17.837	85.3919	-53.3102	67.781	107.462	-53.9198	98.6013	121.686	-30.4691	68.4042	
230	1.91667	110.714	11.1754	77.6435	81.7082	31.7785	60.7831	49.7005	31.1017	46.698	27.5719	9.92193	43.6729	94.1318	-14.3883	4.27514	76.8072	-7.59881	-20.0953	50.9114	12.6391	-28.6352	77.0913	-40.9768	8.89951	57.066	-36.3024	-24.7757	32.0842	-22.3157	-38.7567	60.4225	-51.3526	23.0297	37.1439	-55.0067	-0.810574	14.7322	-43.5869	-20.3178	38.2319	-57.2205	48.7295	14.6732	-59.7102	34.1422	-2.88742	-58.0886	21.5454	86.4919	-53.4452	72.6978	104.762	-55.9944	100.663	120.28	-28.3342	70.8185	
231	1.925	110.88	16.066	78.6158	79.6546	35.4283	60.6618	48.8035	38.9159	45.2627	24.3541	21.6077	39.2965	93.4733	-12.0768	4.28445	73.9204	-2.30298	-23.5359	46.0084	11.3612	-30.8006	74.6387	-41.263	8.87542	55.0098	-37.4096	-23.6736	29.025	-26.9131	-38.1942	59.0408	-52.0838	23.8608	40.1185	-56.0336	2.19228	15.0854	-49.7875	-15.7953	38.7926	-59.9658	53.9907	14.0452	-62.2454	35.8317	-1.86064	-61.8666	19.1321	87.1379	-52.1091	71.9078	103.821	-55.3227	97.876	116.711	-30.6158	70.5048	
232	1.93333	110.602	12.1158	81.7552	80.5447	32.562	65.5448	48.2484	38.3349	44.8865	22.4975	31.7325	36.3158	90.8362	-16.1666	2.64271	72.413	-6.88407	-20.926	47.507	6.31069	-31.0752	74.968	-44.329	6.59359	57.3142	-42.1047	-20.3285	25.3097	-29.349	-39.9414	57.7845	-59.4011	25.0029	39.1385	-59.295	-0.114737	16.9152	-52.4294	-18.5379	41.2126	-62.205	51.4858	17.2032	-65.563	34.6358	0.849014	-64.7034	22.2221	85.8783	-55.7562	71.1156	105.439	-56.6411	103.82	121.379	-28.4368	72.2872	
233	1.94167	109.586	13.5774	81.1869	80.4854	35.6798	64.4819	48.8627	41.8804	44.7056	24.7597	41.3701	36.0136	91.8947	-15.2261	6.27492	71.3838	-7.41907	-21.8777	47.3954	3.78366	-28.9102	80.5612	-42.1011	7.44505	59.0303	-41.3258	-20.8492	28.5686	-29.9784	-40.0916	61.8216	-59.6215	25.3632	42.2219	-64.4522	3.95638	17.252	-57.6717	-17.6929	44.0186	-63.8598	54.391	17.9334	-70.323	35.2206	0.171838	-71.0449	23.3787	90.6626	-55.9625	75.1468	107.624	-55.4388	98.9893	119.117	-30.6829	73.7146	
234	1.95	107.187	15.737	82.8472	77.6189	34.5363	64.5395	48.3146	45.4563	45.3014	25.3545	39.9026	34.8404	88.7846	-16.8954	2.93396	68.7026	-8.97549	-19.4473	42.1052	7.54201	-26.7731	80.9382	-43.6787	9.33556	61.7325	-42.3109	-20.2086	28.7734	-31.3588	-37.8836	66.9246	-59.7225	23.896	48.0329	-65.8369	1.56732	21.9378	-56.0549	-21.7942	45.8536	-68.7369	52.1809	26.6877	-71.3934	32.708	6.30912	-71.4604	17.5915	92.9776	-55.7416	71.9623	108.944	-53.8387	99.5232	118.392	-27.9532	73.1589	
235	1.95833	103.088	18.2705	80.1816	76.7756	38.2917	66.696	47.4002	48.3717	44.1436	24.1689	44.4885	31.9053	88.7183	-9.66716	4.59052	65.3184	-2.32158	-18.4895	36.7116	3.36566	-18.2716	83.9307	-40.4386	6.65436	60.7823	-40.3502	-23.6767	32.2362	-32.3671	-36.3795	71.0914	-58.5599	24.1144	53.6998	-65.574	-0.887819	29.0396	-56.9957	-21.1592	53.9958	-66.6676	46.8111	27.9611	-76.4551	27.2646	10.3339	-73.9817	13.7193	97.3547	-50.8364	70.8781	110.406	-51.094	98.9082	119.772	-24.0938	72.0843	
236	1.96667	101.567	19.5268	82.7539	75.459	38.3605	69.0784	46.5446	42.7841	44.2512	23.9568	36.0042	29.0862	86.2365	-10.9055	6.62432	61.6199	-1.38264	-13.634	29.1751	9.15572	-9.75184	86.2782	-38.9335	6.57467	66.7058	-38.6508	-22.6388	30.0879	-33.0095	-37.6009	74.9216	-59.0616	18.9586	59.8942	-64.451	-4.61224	36.4298	-55.1343	-24.0951	58.2894	-69.5005	40.0149	37.7354	-74.569	21.4317	15.6288	-73.5109	3.0977	95.6185	-54.1875	70.6159	111.649	-49.4889	101.874	118.299	-21.6947	72.9348	
237	1.975	99.706	21.0689	85.3823	72.816	40.1532	68.7018	46.6443	43.3255	45.1869	25.315	33.79	29.8549	87.0656	-8.52881	9.13064	60.1601	-4.67675	-8.24231	24.4774	4.86373	0.35179	89.8963	-37.2034	4.06854	67.8657	-38.1375	-24.4326	34.6545	-32.2656	-38.7868	81.5487	-56.5	15.6054	67.9812	-58.8749	-7.55095	42.5901	-55.1785	-26.8547	64.2494	-69.9099	39.2718	43.7643	-79.211	17.8006	24.3441	-74.4855	0.325143	102.544	-49.9449	68.0777	115.276	-48.0027	98.8905	121.739	-18.7712	76.5169	
238	1.98333	97.5108	20.498	92.8478	70.4345	36.6288	72.4857	44.6217	46.6353	47.9394	24.6475	36.2717	30.6997	86.295	-5.07568	10.6578	60.6499	3.52986	-6.53972	28.033	7.64303	5.51971	93.6821	-32.363	6.28195	69.7535	-35.2667	-25.0273	41.7694	-29.9618	-38.2244	87.5516	-51.5024	16.4685	73.7074	-56.5694	-9.39763	44.8171	-49.4384	-31.5227	68.7813	-70.2388	37.256	54.0852	-74.0655	14.5996	35.3849	-74.0944	-6.56433	105.531	-47.334	70.3578	113.897	-49.4955	102.145	121.273	-14.9275	77.4505	
239	1.99167	92.733	24.4114	91.0416	68.2527	37.2587	75.3059	42.408	46.4257	51.0972	23.5171	33.6401	28.0514	87.0379	5.31457	11.9326	58.6897	7.43812	-4.11425	26.3185	11.2344	9.68981	94.8879	-26.3292	6.43548	75.6929	-29.8766	-23.4764	43.2356	-21.3464	-40.1313	89.3697	-48.4215	13.1603	75.0533	-50.6159	-13.4065	48.3454	-44.821	-33.5116	72.626	-66.2322	37.37	58.7177	-69.903	12.0622	38.6715	-74.4013	-10.2496	103.295	-42.8163	66.5331	114.926	-43.7425	98.2055	119.11	-11.8168	81.5268	
240	2	90.3985	21.2544	94.1944	63.9482	41.8002	75.0011	40.6564	46.0085	52.4641	21.2859	37.2224	31.2684	82.3651	6.21588	11.0309	51.3788	9.47699	-1.55809	25.3232	13.1877	13.9508	93.9119	-21.8957	4.67736	75.9386	-20.481	-23.4406	41.0316	-13.8746	-40.7051	89.6797	-42.3907	14.2192	76.0898	-43.4265	-14.8021	53.8278	-37.7085	-32.2851	74.2872	-65.4988	31.5462	61.1991	-67.4596	9.25866	42.816	-69.1671	-10.4447	104.393	-43.7495	69.8206	116.444	-46.1642	101.806	118.788	-9.73054	79.8316	
241	2.00833	88.9914	22.0871	94.5595	60.4372	39.8259	75.1938	37.6502	42.8954	50.8311	21.3059	28.9737	30.2325	81.2313	9.05295	14.0869	52.7335	11.1972	0.130144	23.3226	13.6525	17.2082	93.7548	-17.2751	6.01211	75.3226	-15.1636	-23.9321	42.8092	-17.0121	-37.9921	90.2357	-40.3103	13.7042	75.6327	-41.9228	-15.3171	51.2964	-38.9682	-31.9908	75.2073	-62.3665	33.0803	60.6584	-67.2062	8.5426	41.3735	-70.0775	-14.2268	106.565	-41.4302	68.9037	115.437	-41.9871	100.196	117.27	-8.24602	79.2917	
242	2.01667	86.5544	22.7985	94.5833	59.3266	36.2044	77.6427	32.76	43.6259	53.4785	18.2322	29.1073	35.8462	81.2146	13.5976	16.3185	49.68	13.3471	1.4993	20.2132	9.67325	18.9912	92.0249	-16.0205	7.1578	71.5245	-11.555	-25.1267	41.5187	-14.5741	-37.8011	88.6159	-38.9286	15.641	75.4163	-38.4759	-14.8627	46.4184	-36.7967	-34.2759	74.9579	-61.6378	33.8717	58.834	-67.9403	6.03079	42.7398	-68.3211	-16.0493	103.686	-37.9394	66.103	116.077	-42.772	99.9199	116.106	-6.09849	84.0753	
243	2.025	85.7335	25.3655	100.526	57.1607	39.915	81.4065	31.9345	43.4054	55.2636	14.8818	32.7297	35.0924	75.9956	14.3091	12.9353	47.2623	17.2334	2.77793	18.1833	13.3341	19.4558	91.548	-13.254	9.13418	73.2789	-11.8631	-23.069	39.4095	-9.97086	-38.1462	88.0317	-34.5	13.4981	75.1103	-34.7719	-13.568	49.7645	-31.9425	-32.1176	74.1129	-56.1176	31.6592	59.0364	-62.7425	5.70029	43.1449	-64.2455	-11.3146	103.48	-40.0498	64.9654	114.284	-40.4708	98.2507	115.35	-2.89379	82.6225	
244	2.03333	84.0518	25.64	101.808	55.3423	39.1347	81.2156	28.4359	45.1023	55.2447	12.6281	33.7334	36.2768	75.6307	15.2806	15.3502	45.0742	18.3118	3.08441	15.4689	14.6233	22.563	91.8193	-7.78053	8.79624	71.4433	-9.30069	-22.9701	37.31	-5.94971	-38.0851	88.3846	-35.1788	13.2256	75.1363	-37.7557	-13.0838	46.1717	-30.2505	-34.514	74.2712	-57.4144	31.7856	59.5947	-61.242	6.13025	39.8942	-64.4916	-15.4685	105.47	-35.0683	67.8232	113.6	-39.3239	98.9015	113.259	-0.63371	79.5357	
245	2.04167	83.1395	24.5157	101.62	53.4275	38.1965	81.5612	28.5708	42.1527	60.0757	11.4825	28.5715	39.5548	76.5059	15.2356	17.5987	47.276	20.2878	3.7241	15.4595	11.7741	23.0565	91.3696	-11.842	6.46465	72.566	-9.86641	-22.37	41.9245	-7.56614	-38.8761	87.9282	-37.5522	14.1897	74.6499	-35.0273	-14.8361	50.4444	-33.1792	-32.3608	73.1686	-60.129	28.6773	59.5162	-62.3355	6.56036	42.5586	-63.1588	-14.9827	102.394	-36.7932	64.5893	114.177	-39.548	99.7788	112.143	-1.58008	83.3818	
246	2.05	81.7893	26.6941	100.124	51.4553	38.9531	81.8757	26.2428	40.0197	60.2943	11.2828	25.1127	38.5856	75.9376	16.2406	17.7965	43.8125	20.2451	3.6658	16.5377	14.7638	19.0515	91.8576	-10.0193	5.41349	73.1081	-9.63869	-24.3244	40.6321	-3.81172	-40.5723	89.5843	-30.7172	14.1336	76.7702	-35.7797	-15.7345	52.1742	-32.4854	-34.7735	74.8166	-56.4804	30.3351	63.5646	-61.5377	7.80949	44.7105	-63.3615	-18.4269	103.716	-39.2044	65.7204	113.97	-40.9693	99.1026	112.567	-0.574077	84.2268	
247	2.05833	80.4471	29.166	101.337	49.3637	41.3299	83.2993	22.7312	43.1806	60.8872	7.16277	29.7473	38.9805	76.6564	23.5588	18.558	44.3922	24.8524	4.5561	14.2271	21.0495	20.8179	92.0883	-3.20195	7.61361	74.3153	-1.51583	-24.2919	45.0295	1.818	-41.3088	90.0307	-31.0953	10.6828	77.5972	-33.7858	-15.119	53.9427	-27.948	-37.1924	76.3653	-56.0835	28.0793	64.6426	-57.7591	3.59094	47.287	-61.9596	-17.0578	102.251	-35.883	69.4779	112.724	-35.3775	98.2533	113.033	1.59114	81.9636	
